Coordinates
version=1
nRows=9
nColumns=24
inDegrees=yes

Units are S.I. units (second, meters, Newtons, ...)
Angles are in degrees.

endheader
time	pelvis_tilt	pelvis_list	pelvis_rotation	pelvis_tx	pelvis_ty	pelvis_tz	hip_flexion_r	hip_adduction_r	hip_rotation_r	knee_angle_r	ankle_angle_r	subtalar_angle_r	mtp_angle_r	hip_flexion_l	hip_adduction_l	hip_rotation_l	knee_angle_l	ankle_angle_l	subtalar_angle_l	mtp_angle_l	lumbar_extension	lumbar_bending	lumbar_rotation
      5.50000000	     10.49710178	     -0.50611065	     -5.95197540	     -1.11792221	      0.82464064	      0.25474943	    -18.45569596	      1.68796063	      9.98037786	     -4.66588622	     20.48423928	      5.73880277	      0.00000000	     16.90031992	     -0.14117350	     -4.50634601	    -43.04190810	     12.97914660	    -11.07232696	      0.00000000	    -26.93149601	     -5.44328294	     13.56639036
      5.51000000	     10.71619741	     -0.56625427	     -6.79339573	     -1.10640872	      0.82341149	      0.25478722	    -20.17831457	      1.15127636	     10.52840938	     -3.38964517	     20.61805287	      6.04130308	      0.00000000	     16.69460615	     -0.38661869	     -4.24735528	    -38.63951596	     12.63217443	    -11.23802684	      0.00000000	    -27.41559671	     -5.68107757	     14.38348793
      5.52000000	     10.98682997	     -0.70317728	     -7.56629762	     -1.09457317	      0.82189245	      0.25466017	    -22.00320029	      0.65913733	     11.10176026	     -2.08417897	     20.65935553	      6.17881529	      0.00000000	     16.23301715	     -0.64814203	     -3.63797986	    -34.04180329	     12.36682601	    -11.15437872	      0.00000000	    -27.90571687	     -5.79882753	     15.12979656
      5.53000000	     11.08859077	     -0.94367389	     -8.35315084	     -1.08246823	      0.81993984	      0.25440080	    -23.62830896	      0.24321611	     11.72620815	     -0.87056978	     20.67350852	      6.28609724	      0.00000000	     15.76609928	     -1.00956467	     -2.66854075	    -29.31167369	     12.02467238	    -11.13294684	      0.00000000	    -28.15006833	     -5.75170645	     15.95858939
      5.54000000	     11.47124473	     -1.20341041	     -8.99772265	     -1.07003547	      0.81795778	      0.25400351	    -25.60402398	     -0.17796112	     12.36545357	      0.36318810	     20.55086555	      6.06185995	      0.00000000	     14.80041779	     -1.31221923	     -1.08532894	    -24.45607124	     11.72921577	    -11.13327134	      0.00000000	    -28.68769957	     -5.68628281	     16.53706813
      5.55000000	     11.68771127	     -1.56299155	     -9.69314096	     -1.05738945	      0.81568029	      0.25359349	    -27.33884083	     -0.53245080	     13.07606403	      1.42635485	     20.37981312	      5.88348883	      0.00000000	     13.85869217	     -1.80415778	      0.91232647	    -19.63163496	     11.11889340	    -11.53797342	      0.00000000	    -29.00108419	     -5.49918419	     17.27031653
      5.56000000	     11.88764405	     -2.06770946	    -10.41015138	     -1.04454265	      0.81325324	      0.25325089	    -28.98922613	     -0.76963854	     13.81512096	      2.28364467	     20.18850399	      5.69725912	      0.00000000	     12.79472100	     -2.55283692	      3.23551807	    -14.93201148	     10.27061807	    -12.52470707	      0.00000000	    -29.28255363	     -5.17583921	     18.05892307
      5.57000000	     12.03929129	     -2.72543173	    -11.16310317	     -1.03150312	      0.81072266	      0.25305202	    -30.50220680	     -0.87621135	     14.55425496	      2.89080564	     20.00607135	      5.58619516	      0.00000000	     11.71130705	     -3.60999092	      5.46151671	    -10.56732471	      9.28478384	    -13.89618654	      0.00000000	    -29.49946719	     -4.72867551	     18.91928217
      5.58000000	     12.12831481	     -3.47247163	    -11.87034950	     -1.01831103	      0.80819453	      0.25284091	    -31.86321152	     -0.88434154	     15.20809090	      3.26216529	     19.78073742	      5.65356701	      0.00000000	     10.76853109	     -4.85569974	      7.13332928	     -6.83511133	      8.35925928	    -15.11184218	      0.00000000	    -29.66325193	     -4.18008734	     19.80362612
